<svg xmlns="http://www.w3.org/2000/svg" width="1200" height="300"><g clip-path="url(#A)"><use href="#B" fill="gray"/><use href="#B" fill="#fff" fill-opacity=".6"/><use href="#C" fill="#32bdcd"/><use href="#C" fill="#fff" fill-opacity=".9"/><use href="#D" fill="#32bdcd"/><use href="#D" fill="#fff" fill-opacity=".8"/><use href="#E" fill="#32bdcd"/><use href="#E" fill="#fff" fill-opacity=".4"/><use href="#F" fill="gray"/><use href="#F" fill="#fff" fill-opacity=".9"/><use href="#G" fill="gray"/><g fill="#fff"><use href="#G" fill-opacity=".8"/><path d="M262.519 172.413l3.929-19.178 18.721-6.239 14.792 12.94-3.929 19.178-18.721 6.239-14.792-12.94z"/></g></g><path d="M468.884 187.94c-6.912 0-12.88-1.504-17.904-4.512-4.992-3.008-8.848-7.216-11.568-12.624-2.688-5.408-4.032-11.696-4.032-18.864s1.344-13.456 4.032-18.864c2.72-5.408 6.576-9.616 11.568-12.624 5.024-3.008 10.992-4.512 17.904-4.512 7.936 0 14.592 1.968 19.968 5.904 5.408 3.936 9.216 9.264 11.424 15.984l-13.152 3.648c-1.28-4.192-3.44-7.44-6.48-9.744-3.04-2.336-6.96-3.504-11.76-3.504-4.384 0-8.048.976-10.992 2.928-2.912 1.952-5.104 4.704-6.576 8.256s-2.208 7.728-2.208 12.528.736 8.976 2.208 12.528 3.664 6.304 6.576 8.256c2.944 1.952 6.608 2.928 10.992 2.928 4.8 0 8.72-1.168 11.76-3.504s5.2-5.584 6.48-9.744l13.152 3.648c-2.208 6.72-6.016 12.048-11.424 15.984-5.376 3.936-12.032 5.904-19.968 5.904zm56.361 0c-3.712 0-6.864-.704-9.456-2.112-2.56-1.44-4.512-3.344-5.856-5.712-1.312-2.4-1.968-5.04-1.968-7.92 0-2.4.368-4.592 1.104-6.576s1.92-3.728 3.552-5.232c1.664-1.536 3.888-2.816 6.672-3.84 1.92-.704 4.208-1.328 6.864-1.872s5.664-1.056 9.024-1.536l11.088-1.68-4.704 2.592c0-3.072-.736-5.328-2.208-6.768s-3.936-2.16-7.392-2.16c-1.92 0-3.92.464-6 1.392s-3.536 2.576-4.368 4.944l-11.808-3.744c1.312-4.288 3.776-7.776 7.392-10.464s8.544-4.032 14.784-4.032c4.576 0 8.64.704 12.192 2.112s6.24 3.84 8.064 7.296c1.024 1.92 1.632 3.84 1.824 5.76s.288 4.064.288 6.432v31.68h-11.424v-10.656l1.632 2.208c-2.528 3.488-5.264 6.016-8.208 7.584-2.912 1.536-6.608 2.304-11.088 2.304zm2.784-10.272c2.4 0 4.416-.416 6.048-1.248 1.664-.864 2.976-1.84 3.936-2.928.992-1.088 1.664-2 2.016-2.736.672-1.408 1.056-3.04 1.152-4.896.128-1.888.192-3.456.192-4.704l3.84.96-9.408 1.632c-2.4.416-4.336.8-5.808 1.152s-2.768.736-3.888 1.152c-1.28.512-2.32 1.072-3.12 1.68-.768.576-1.344 1.216-1.728 1.92-.352.704-.528 1.488-.528 2.352 0 1.184.288 2.208.864 3.072.608.832 1.456 1.472 2.544 1.92s2.384.672 3.888.672zm64.225 10.272c-5.152 0-9.456-1.2-12.912-3.6s-6.064-5.664-7.824-9.792c-1.728-4.128-2.592-8.784-2.592-13.968s.864-9.84 2.592-13.968 4.272-7.392 7.632-9.792 7.504-3.6 12.432-3.6c4.96 0 9.28 1.184 12.96 3.552s6.528 5.616 8.544 9.744c2.048 4.096 3.072 8.784 3.072 14.064 0 5.184-1.008 9.84-3.024 13.968-1.984 4.128-4.768 7.392-8.352 9.792s-7.76 3.6-12.528 3.6zm-25.536 21.6v-74.88h11.52v35.52h1.632v39.36h-13.152zm23.424-33.216c2.816 0 5.12-.704 6.912-2.112s3.12-3.296 3.984-5.664c.864-2.4 1.296-5.056 1.296-7.968 0-2.88-.448-5.504-1.344-7.872-.896-2.4-2.288-4.304-4.176-5.712-1.856-1.44-4.24-2.16-7.152-2.16-2.72 0-4.928.656-6.624 1.968-1.664 1.312-2.88 3.152-3.648 5.52s-1.152 5.12-1.152 8.256.384 5.888 1.152 8.256 2.016 4.208 3.744 5.52c1.76 1.312 4.096 1.968 7.008 1.968zm67.682 10.176c-3.584.672-7.104.96-10.56.864-3.424-.064-6.496-.656-9.216-1.776-2.688-1.152-4.736-2.992-6.144-5.52-1.28-2.368-1.952-4.768-2.016-7.2l-.096-8.352V120.26h13.056v43.488l.048 5.472c.064 1.6.4 2.88 1.008 3.84 1.152 1.824 2.992 2.816 5.52 2.976s5.328.032 8.4-.384V186.5zm-36.864-41.76v-10.08h36.864v10.08H620.96zm67.712 43.296c-4.064 0-7.376-.688-9.936-2.064s-4.56-3.12-6-5.232c-1.408-2.112-2.416-4.304-3.024-6.576-.608-2.304-.976-4.4-1.104-6.288s-.192-3.264-.192-4.128V134.66h13.248v24.48c0 1.184.064 2.704.192 4.56.128 1.824.528 3.664 1.2 5.52s1.76 3.408 3.264 4.656c1.536 1.248 3.696 1.872 6.48 1.872 1.12 0 2.32-.176 3.6-.528s2.48-1.024 3.6-2.016c1.12-1.024 2.032-2.512 2.736-4.464.736-1.984 1.104-4.576 1.104-7.776l7.488 3.552c0 4.096-.832 7.936-2.496 11.52s-4.176 6.48-7.536 8.688c-3.328 2.208-7.536 3.312-12.624 3.312zm16.8-1.536v-17.184h-1.632V134.66h13.152v51.84h-11.52zm24.936 0v-51.84h11.52v12.672l-1.248-1.632c.672-1.792 1.568-3.424 2.688-4.896s2.496-2.688 4.128-3.648c1.248-.768 2.608-1.36 4.08-1.776 1.472-.448 2.992-.72 4.56-.816 1.568-.128 3.136-.096 4.704.096v12.192c-1.44-.448-3.12-.592-5.04-.432-1.888.128-3.6.56-5.136 1.296-1.536.704-2.832 1.648-3.888 2.832-1.056 1.152-1.856 2.528-2.4 4.128-.544 1.568-.816 3.344-.816 5.328V186.5h-13.152zm52.931 1.44c-3.712 0-6.864-.704-9.456-2.112-2.56-1.44-4.512-3.344-5.856-5.712-1.312-2.4-1.968-5.04-1.968-7.92 0-2.4.368-4.592 1.104-6.576s1.92-3.728 3.552-5.232c1.664-1.536 3.888-2.816 6.672-3.84 1.92-.704 4.208-1.328 6.864-1.872s5.664-1.056 9.024-1.536l11.088-1.68-4.704 2.592c0-3.072-.736-5.328-2.208-6.768s-3.936-2.16-7.392-2.16c-1.92 0-3.92.464-6 1.392s-3.536 2.576-4.368 4.944l-11.808-3.744c1.312-4.288 3.776-7.776 7.392-10.464s8.544-4.032 14.784-4.032c4.576 0 8.64.704 12.192 2.112s6.24 3.84 8.064 7.296c1.024 1.92 1.632 3.84 1.824 5.76s.288 4.064.288 6.432v31.68h-11.424v-10.656l1.632 2.208c-2.528 3.488-5.264 6.016-8.208 7.584-2.912 1.536-6.608 2.304-11.088 2.304zm2.784-10.272c2.4 0 4.416-.416 6.048-1.248 1.664-.864 2.976-1.84 3.936-2.928.992-1.088 1.664-2 2.016-2.736.672-1.408 1.056-3.04 1.152-4.896.128-1.888.192-3.456.192-4.704l3.84.96-9.408 1.632c-2.4.416-4.336.8-5.808 1.152s-2.768.736-3.888 1.152c-1.28.512-2.32 1.072-3.12 1.68-.768.576-1.344 1.216-1.728 1.92-.352.704-.528 1.488-.528 2.352 0 1.184.288 2.208.864 3.072.608.832 1.456 1.472 2.544 1.92s2.384.672 3.888.672zm68.449 10.272c-6.912 0-12.88-1.504-17.904-4.512-4.992-3.008-8.848-7.216-11.568-12.624-2.688-5.408-4.032-11.696-4.032-18.864s1.344-13.456 4.032-18.864c2.72-5.408 6.576-9.616 11.568-12.624 5.024-3.008 10.992-4.512 17.904-4.512 7.936 0 14.592 1.968 19.968 5.904 5.408 3.936 9.216 9.264 11.424 15.984l-13.152 3.648c-1.28-4.192-3.44-7.44-6.48-9.744-3.04-2.336-6.96-3.504-11.76-3.504-4.384 0-8.048.976-10.992 2.928-2.912 1.952-5.104 4.704-6.576 8.256s-2.208 7.728-2.208 12.528.736 8.976 2.208 12.528 3.664 6.304 6.576 8.256c2.944 1.952 6.608 2.928 10.992 2.928 4.8 0 8.72-1.168 11.76-3.504s5.2-5.584 6.48-9.744l13.152 3.648c-2.208 6.72-6.016 12.048-11.424 15.984-5.376 3.936-12.032 5.904-19.968 5.904zm42.921-1.44v-70.56h13.056v70.56h-13.056zm50.774 1.44c-5.216 0-9.792-1.168-13.728-3.504s-7.008-5.552-9.216-9.648c-2.176-4.128-3.264-8.864-3.264-14.208 0-5.408 1.12-10.16 3.36-14.256 2.24-4.128 5.328-7.344 9.264-9.648s8.464-3.456 13.584-3.456c5.216 0 9.792 1.168 13.728 3.504 3.968 2.336 7.056 5.568 9.264 9.696 2.208 4.096 3.312 8.816 3.312 14.16 0 5.376-1.12 10.128-3.36 14.256-2.208 4.096-5.296 7.312-9.264 9.648-3.936 2.304-8.496 3.456-13.68 3.456zm0-12.192c4.192 0 7.312-1.408 9.36-4.224 2.08-2.848 3.12-6.496 3.12-10.944 0-4.608-1.056-8.288-3.168-11.04-2.08-2.752-5.184-4.128-9.312-4.128-2.848 0-5.184.64-7.008 1.92s-3.184 3.056-4.08 5.328c-.864 2.272-1.296 4.912-1.296 7.92 0 4.64 1.04 8.336 3.12 11.088 2.112 2.72 5.2 4.08 9.264 4.08zm56.153 12.288c-4.06 0-7.374-.688-9.934-2.064s-4.56-3.12-6-5.232c-1.408-2.112-2.416-4.304-3.024-6.576-.608-2.304-.976-4.4-1.104-6.288s-.192-3.264-.192-4.128V134.66h13.248v24.48c0 1.184.064 2.704.192 4.56.128 1.824.528 3.664 1.2 5.52s1.764 3.408 3.264 4.656c1.54 1.248 3.7 1.872 6.48 1.872 1.12 0 2.32-.176 3.6-.528s2.48-1.024 3.6-2.016c1.12-1.024 2.03-2.512 2.74-4.464.73-1.984 1.1-4.576 1.1-7.776l7.49 3.552c0 4.096-.83 7.936-2.5 11.52-1.66 3.584-4.17 6.48-7.53 8.688-3.33 2.208-7.54 3.312-12.63 3.312zm16.8-1.536v-17.184h-1.63V134.66h13.15v51.84h-11.52zm45.96 1.44c-4.77 0-8.94-1.2-12.53-3.6-3.58-2.4-6.38-5.664-8.4-9.792-1.98-4.128-2.97-8.784-2.97-13.968 0-5.28 1.01-9.968 3.02-14.064 2.05-4.128 4.91-7.376 8.59-9.744s8-3.552 12.96-3.552c4.93 0 9.08 1.2 12.44 3.6s5.9 5.664 7.63 9.792 2.59 8.784 2.59 13.968-.88 9.84-2.64 13.968c-1.73 4.128-4.32 7.392-7.78 9.792-3.45 2.4-7.76 3.6-12.91 3.6zm2.11-11.616c2.92 0 5.24-.656 6.96-1.968 1.76-1.312 3.03-3.152 3.8-5.52.76-2.368 1.15-5.12 1.15-8.256s-.39-5.888-1.15-8.256c-.77-2.368-2-4.208-3.7-5.52-1.66-1.312-3.86-1.968-6.58-1.968-2.91 0-5.31.72-7.2 2.16-1.85 1.408-3.23 3.312-4.12 5.712-.9 2.368-1.35 4.992-1.35 7.872 0 2.912.43 5.568 1.3 7.968.86 2.368 2.19 4.256 3.98 5.664s4.1 2.112 6.91 2.112zm11.91 10.176v-35.52h-1.63v-33.6h13.15v69.12h-11.52z" fill="#fff"/><defs><clipPath id="A"><path fill="#fff" transform="translate(100.5 85.533)" d="M0 0h300v128.934005737305H0z"/></clipPath><path id="B" d="M350.346 124.814c6.702 11.322 10.632 23.8 11.325 36.97 24.268 3.004 41.602 24.955 38.598 49.217-.231 1.155-.231 2.311-.462 3.466h-37.674l-62.404-54.762-14.791-12.94 65.408-21.951z"/><path id="C" d="M361.903 214.467h-73.036l7.165-35.353 3.929-19.178 61.942 54.531z"/><path id="D" d="M288.867 214.467h-97.535l85.978-29.114 18.722-6.239-7.165 35.353z"/><path id="E" d="M131.933 175.186c-18.028.693-32.1263 15.943-31.433 33.967 0 1.848.231 3.465.693 5.314h90.139l85.979-29.114-14.792-12.94-51.772-45.519c-31.202-10.86-65.178 5.776-76.04 36.97-1.156 3.697-2.081 7.394-2.774 11.322z"/><path id="F" d="M210.746 126.894c13.868-25.186 40.447-40.8989 69.106-41.361l-13.405 67.702-3.929 19.178-51.772-45.519z"/><path id="G" d="M279.853 85.533c28.891-.4622 55.701 14.557 70.493 39.281l-65.408 22.182-18.721 6.239 13.636-67.702z"/></defs></svg>